<?xml version="1.0" encoding="UTF-8"?> <svg xmlns="http://www.w3.org/2000/svg" width="85" height="85" viewBox="0 0 85 85" fill="none"><path d="M54.9205 51.7097C55.5964 50.0199 55.9344 48.668 55.9344 48.668C55.9344 48.668 55.9344 50.3579 55.7654 52.3857L54.9205 51.7097ZM45.6262 42.4155C45.6262 42.0775 45.4573 41.7395 45.4573 41.7395C45.4573 41.7395 46.1332 42.4155 46.8092 43.7673L45.6262 42.4155ZM31.6004 35.318C31.0934 36.332 30.5865 36.839 30.5865 36.839C30.5865 36.839 29.2346 34.4731 28.0517 33.2902C26.3618 31.6003 22.8131 31.4314 22.8131 31.4314C22.8131 31.4314 24.334 32.1073 25.8549 33.9662C27.2068 35.994 28.0517 38.0218 26.6998 40.8946C25.3479 43.5983 25.1789 49.006 25.1789 49.006C25.1789 49.006 22.4751 46.3022 21.1233 44.9503C19.7714 43.5984 17.7435 43.5984 17.7435 43.5984C17.7435 43.5984 21.2922 46.4711 22.6441 53.9065C23.6581 59.3141 23.3201 63.7077 25.8549 66.5805C29.2346 70.2982 33.4593 72.326 36.501 73.171H27.3758V76.2127H61.5109V73.171H40.0497C37.5149 72.1571 33.9662 69.9602 32.1074 65.7355C29.2346 59.1451 33.7972 51.3717 33.7972 51.3717C33.7972 51.3717 33.1213 54.4135 34.8111 58.4692C37.008 64.0457 41.5706 65.3976 41.5706 65.3976C41.5706 65.3976 37.8529 60.666 37.6839 55.0894C37.5149 50.0199 41.2326 45.7952 41.2326 45.7952C41.2326 45.7952 40.3877 49.8508 41.4016 51.8787C42.4155 54.0755 44.4433 57.6242 44.4433 57.6242C44.4433 57.6242 45.9642 55.2584 46.4712 51.8787C46.6402 51.2027 46.6402 50.6958 46.6402 50.0199L50.1889 53.5685C49.8509 56.9482 48.499 59.6521 48.499 59.6521C48.499 59.6521 49.8509 58.9762 52.3857 56.6104C52.5547 56.4414 52.7237 56.2724 52.7237 56.2724L54.7515 58.3002C53.7376 60.497 52.2167 61.8489 52.2167 61.8489C52.2167 61.8489 53.0616 61.8489 54.9205 61.004C55.5964 60.666 56.1034 60.328 56.6103 59.9901L57.2863 60.666C56.7793 61.8489 56.1034 63.5387 55.0895 64.8906C52.0477 69.1153 45.9642 71.3121 45.9642 71.3121C45.9642 71.3121 54.0755 73.171 62.5248 66.4115C62.6938 66.4115 62.6938 66.2425 62.8628 66.2425L76.7197 80.0994H4.73162V8.44931L31.6004 35.318ZM67.4255 48.4989C67.4255 48.4989 67.0875 50.6958 65.5666 52.5546C64.5527 53.7375 63.5388 54.7514 63.5388 54.7514C63.5388 54.7514 65.9046 51.2028 65.9046 45.7952C65.9046 36.6699 61.3419 32.6143 61.3419 32.6143C61.3419 32.6143 63.0318 36.839 61.6799 41.4016C60.835 44.1054 58.1312 44.7813 58.1312 44.7813C58.1312 44.7813 58.9761 38.8668 57.4553 32.9523C55.7654 26.3618 50.5268 20.9542 50.5268 20.9542C50.5268 20.9542 52.2167 26.0238 52.0477 29.0655C51.8787 34.1351 50.1889 35.994 50.1889 35.994C50.1889 35.994 50.3579 30.5865 47.4851 24.503C45.9642 21.2923 42.9225 18.7574 41.2326 14.7017C39.7117 10.646 41.9086 8.61825 41.9086 8.61825C41.9086 8.61825 38.5288 9.97014 37.8529 11.998C37.1769 14.0258 37.1769 16.7295 38.1909 20.6162C39.3738 24.5029 37.3459 27.8827 37.3459 27.8827C37.3459 27.8827 36.501 25.1789 34.8111 23.489C32.9523 21.7991 29.7416 21.4612 29.7416 21.4612C29.7416 21.4612 32.6143 22.4751 32.6143 29.7415L7.77337 4.73159H80.0994V77.0576L65.2286 62.1869C68.1014 56.2724 67.4255 48.4989 67.4255 48.4989ZM80.9443 0H4.05567C1.85885 0 0 1.85879 0 4.05561V80.9443C0 83.1411 1.85885 85 4.05567 85H80.9443C83.1412 85 85 83.1411 85 80.9443V4.05561C85 1.6898 83.1412 0 80.9443 0Z" fill="#F04D12"></path></svg> 