<?xml version="1.0" encoding="UTF-8"?> <svg xmlns="http://www.w3.org/2000/svg" width="85" height="85" viewBox="0 0 85 85" fill="none"><path d="M80.3242 80.3241H4.84282V4.84287H80.3242V80.3241ZM80.9922 0H4.00785C1.83693 0 0 1.83698 0 4.0079V80.9921C0 83.163 1.83693 85 4.00785 85H80.9922C83.1631 85 85 83.163 85 80.9921V4.0079C85 1.83698 83.1631 0 80.9922 0Z" fill="#F04D12"></path><path d="M39.3161 56.3354C38.9814 52.1428 38.312 47.9503 37.6426 43.9255C37.3079 42.4162 37.1405 41.0745 36.8058 39.5652L28.438 31.1801C28.2707 32.0186 28.2707 32.8571 28.2707 33.8634C28.2707 37.5528 29.7768 40.0683 31.1157 42.2485C32.4545 44.5963 33.7934 46.6086 33.7934 49.6273C33.7934 51.8074 34.4628 53.9876 35.6343 55.6646C36.8058 56.1677 37.9773 56.3354 39.3161 56.3354ZM46.0104 48.9565C45.6756 51.4721 45.3409 53.9875 45.1736 56.3354C46.5124 56.1677 48.0186 56 49.3575 55.8323C49.8595 55.1615 50.1942 54.3229 50.5289 53.4844L46.0104 48.9565ZM44.0021 56.5031C44.1694 53.6522 44.6715 50.8012 45.0062 47.9503L38.1446 41.0745C38.312 41.913 38.4793 42.7515 38.6467 43.7577C39.3161 47.9503 39.9855 52.3106 40.3202 56.5031C41.6591 56.5031 42.8306 56.5031 44.0021 56.5031ZM48.3533 31.1801C48.3533 31.0124 48.3533 31.0124 48.3533 31.1801C48.186 31.1801 47.8513 31.3478 47.6839 31.5155C47.5166 31.6832 47.3492 31.8509 47.0145 31.8509C46.6797 31.6832 46.5124 31.1801 46.345 30.677C46.1777 30.8447 46.0103 31.0124 45.843 31.1801C45.3409 31.3478 45.0062 31.1801 45.0062 30.677C45.0062 30.5093 45.1736 30.5093 45.1736 30.5093C45.0062 30.5093 44.6715 30.677 44.5041 31.0124C44.0021 31.3478 43.5 31.6832 42.9979 31.3478L42.6632 31.1801C42.3285 30.8447 41.9938 30.677 41.3244 31.0124C41.157 31.1801 40.9897 31.1801 40.8223 31.1801C40.4876 31.3478 40.3203 31.5155 39.9856 31.3478C39.6508 31.1801 39.6509 31.0124 39.3161 30.677V30.5093C39.1488 30.677 38.9814 30.8447 38.814 31.1801C38.4793 31.6832 38.1446 32.0186 37.8099 32.1863C37.4752 32.354 37.1405 32.1863 36.9731 31.8509C36.8058 31.6832 36.8058 31.3478 36.8058 31.0124C36.8058 30.8447 36.8058 30.677 36.6384 30.5093C36.6384 30.5093 36.4711 30.5093 36.4711 30.677C36.3037 30.8447 36.1363 31.0124 36.1363 31.0124L36.3037 31.6832L46.345 41.5776C46.8471 37.7205 47.6839 34.1987 48.3533 31.1801ZM34.9649 30.677C35.1322 30.3416 35.2996 30.1739 35.4669 29.8385C35.6343 29.6708 35.8016 29.503 36.1363 29.503C36.4711 29.3353 36.8058 29.3353 36.9731 29.503C37.1405 29.6708 37.3079 29.6707 37.4752 30.0061V30.1739C37.4752 30.3416 37.4752 30.3416 37.4752 30.5093C37.8099 30.0062 38.1447 29.6708 38.4794 29.3354C38.9814 29 39.3161 28.9999 39.6508 29.503C39.8182 29.6708 39.8182 29.8384 39.9856 30.0061C40.1529 30.0061 40.1529 29.8385 40.3202 29.8385C41.8264 29.1677 42.1612 29.5031 42.9979 30.1739L43.3327 30.3416C43.5 30.5093 43.3327 30.0061 43.3327 30.0061C43.6674 29.6707 44.1694 29.3354 44.6715 29.3354C45.0062 29.3354 45.3409 29.3354 45.5083 29.6708C45.843 29.3354 46.0103 29.1677 46.345 29.3354C46.5124 29.3354 46.6798 29.5031 46.8471 29.6708C47.0145 29.8385 47.0145 30.1739 47.1818 30.5093C47.1818 30.5093 47.1818 30.5093 47.1818 30.677C47.3492 30.5093 47.6839 30.3416 48.0186 30.1739C48.688 30.0062 49.1901 30.1739 49.3575 31.1801H49.1901H49.3575C48.5207 34.5341 47.6839 38.559 46.8471 42.9192L51.3657 47.2795C51.8678 45.6025 52.7045 44.0931 53.7087 42.5838C55.0475 40.236 56.5537 37.8881 56.5537 34.1987C56.5537 29.503 54.8802 25.4782 52.3698 22.6273C49.8595 19.7764 46.1777 18.267 42.1612 18.267C38.1446 18.267 34.6301 19.9441 31.9525 22.6273C31.1157 23.6335 30.2789 24.6397 29.6095 25.9814L34.9649 30.677ZM61.7418 30.1739H72.1178V34.7019H61.7418V30.1739ZM54.3781 17.0932L61.7418 9.71425L64.9215 12.9006L57.5579 20.2794L54.3781 17.0932ZM44.6715 13.0683H40.1529V2.67075H44.6715V13.0683ZM23.0826 9.71425L30.4463 17.0932L27.2665 20.2794L19.7355 13.0683L23.0826 9.71425ZM12.7066 30.1739H23.0826V34.7019H12.7066V30.1739ZM19.7355 51.8074L27.0992 44.4286L30.2789 47.6148L23.0826 54.9938L19.7355 51.8074ZM57.5579 44.4286L64.9215 51.8074L61.7418 54.9938L54.3781 47.6148L57.5579 44.4286ZM6.01238 2L28.2707 23.9689C28.9401 22.795 29.7769 21.7887 30.6136 20.7825C33.626 17.5962 37.8099 15.5838 42.4959 15.5838C47.1818 15.5838 51.3657 17.4285 54.3781 20.7825C57.3905 23.9689 59.2314 28.4969 59.2314 33.8634C59.2314 38.2236 57.5579 40.9068 55.8843 43.59C54.7128 45.4348 53.7087 47.1118 53.5414 49.1242L84 79.3105L80.3182 83L52.3698 55.3292C52.2025 55.6646 52.2025 55.8323 52.0351 56.1677C52.7045 56.6708 53.2066 57.5093 53.0393 58.3478L52.2025 73.2733C52.2025 74.6149 51.031 75.118 49.6921 75.6211L46.345 76.795C46.345 76.9627 46.5124 76.9627 46.5124 77.1304C46.5124 79.1429 38.814 79.1429 38.814 77.1304C38.814 76.9627 38.8141 76.9627 38.9814 76.795L35.6343 75.6211C34.2955 75.118 33.124 74.6149 33.124 73.2733C32.7893 68.2422 32.6219 63.2112 32.2872 58.3478C32.2872 57.5093 32.6219 56.6708 33.2913 56.1677C32.2872 54.323 31.7851 52.1428 31.7851 49.9627C31.7851 47.6149 30.6136 45.7701 29.4421 43.7577C27.9359 41.2422 26.2624 38.3913 26.2624 34.031C26.2624 32.354 26.4298 30.8447 26.7645 29.503L3 5.85712L6.01238 2Z" fill="#F04D12"></path></svg> 