<?xml version="1.0" encoding="UTF-8"?> <svg xmlns="http://www.w3.org/2000/svg" width="85" height="85" viewBox="0 0 85 85" fill="none"><path d="M80.2684 80.0994H4.90059V4.73159H80.2684V80.0994ZM52.3857 38.0219C53.0616 37.5149 53.5686 36.8389 54.4136 36.163C55.0895 35.487 55.4274 35.1491 55.4274 35.1491V34.98H55.5964C56.9483 33.4592 58.4692 31.7694 59.4831 30.0795C66.0736 19.0954 65.5666 14.5328 65.5666 14.5328L69.9603 16.5606C69.9603 16.5606 67.4254 22.8131 61.3419 30.5864C59.8211 32.4453 58.1312 34.1352 56.6104 35.4871C61.511 37.6839 65.0596 42.4155 65.5666 48.33C66.4115 57.6242 59.3141 66.4115 49.8509 67.9323C45.4573 68.6083 41.5706 66.9184 38.0219 65.3976C38.0219 65.3976 31.9384 62.3558 28.3896 61.004C25.1789 59.821 15.2088 56.6104 15.2088 56.6104C15.2088 56.6104 19.9404 53.0616 20.4473 50.3578C20.9543 47.6541 22.6441 38.3598 22.6441 38.3598C23.4891 34.6421 24.503 31.7694 27.5447 28.0517C33.6282 20.4473 42.4155 19.9403 49.5129 25.5169C54.0755 29.0656 53.2306 32.2763 53.0616 33.1212C51.7097 35.487 47.4851 39.8806 35.8251 46.8091C27.5448 51.7097 18.4195 55.4274 18.4195 55.4274C18.4195 55.4274 27.0378 53.2306 37.3459 47.8231C45.1193 43.5984 49.8509 40.2187 52.3857 38.0219ZM80.9443 0H4.05566C1.85884 0 0 1.85879 0 4.05561V80.9443C0 83.1411 1.85884 85 4.05566 85H80.9443C83.1412 85 85 83.1411 85 80.9443V4.05561C84.831 1.6898 83.1412 0 80.9443 0Z" fill="#F04D12"></path></svg> 