<?xml version="1.0" encoding="UTF-8"?> <svg xmlns="http://www.w3.org/2000/svg" width="85" height="85" viewBox="0 0 85 85" fill="none"><path d="M17.7435 24.503C17.7435 25.0099 18.2505 25.5168 18.7575 25.5168C19.2644 25.5168 19.7714 25.0099 19.7714 24.503C19.7714 23.996 19.2644 23.489 18.7575 23.489C18.2505 23.489 17.7435 23.996 17.7435 24.503ZM80.2684 80.0993H4.90058V4.73159H80.2684V80.0993ZM80.9443 0H4.05565C1.85884 0 0 1.85878 0 4.0556V80.9442C0 83.1411 1.85884 84.9999 4.05565 84.9999H80.9443C83.1411 84.9999 85 83.1411 85 80.9442V4.0556C84.831 1.6898 83.1411 0 80.9443 0ZM25.01 17.7435C25.01 17.7435 26.5308 16.5606 30.0795 15.7157C36.332 14.5328 40.2187 18.9264 40.7256 24.165C41.2326 29.4035 37.0079 34.1352 31.0934 34.6421L31.2624 35.994C37.8529 35.487 42.7535 30.0794 42.2465 23.9959C41.7395 19.2643 39.2047 15.5467 34.4731 14.5328C40.5566 13.1809 49.175 11.829 57.7932 15.0397C66.2425 18.0814 67.0875 26.6997 67.0875 31.0934C67.0875 36.3319 66.2425 41.9085 66.2425 41.9085L63.3698 41.5705L58.9761 58.1311H71.9881V65.3975H68.2703V71.988H64.7217V65.3975H20.4473V71.988H16.8986V65.3975H13.1809V58.1311H33.2903L32.1073 47.147C32.1073 47.147 30.2485 45.9641 28.8966 44.2743C27.5447 42.7534 25.5169 39.0357 25.5169 39.0357L24.334 42.4155L21.1233 39.2047C21.1233 39.2047 20.1093 42.0775 20.9543 47.147C21.6302 51.3717 23.489 54.2445 23.489 54.2445L20.7853 55.5963C20.7853 55.5963 14.7018 47.1471 14.7018 36.8389C14.7018 23.827 18.0815 17.4055 19.9404 17.4055C21.6302 17.5745 25.01 17.7435 25.01 17.7435L52.7237 58.1311L51.8787 50.0198C51.8787 50.0198 49.6819 50.3578 45.7952 50.3578C41.9085 50.3578 40.5566 50.0198 40.5566 50.0198L39.8807 58.1311H52.5547L25.01 17.7435Z" fill="#F04D12"></path></svg> 