<?xml version="1.0" encoding="UTF-8"?> <svg xmlns="http://www.w3.org/2000/svg" width="85" height="85" viewBox="0 0 85 85" fill="none"><path d="M80.2684 80.0994H4.90059V4.73159H80.2684V80.0994ZM50.1889 58.6381C49.6819 58.6381 49.3439 58.9761 49.3439 59.483C49.3439 59.99 49.6819 60.328 50.1889 60.328C50.6958 60.328 51.0338 59.99 51.0338 59.483C51.0338 58.9761 50.6958 58.6381 50.1889 58.6381ZM51.5408 55.4274C51.2028 55.4274 51.0338 55.5964 51.0338 55.9344C51.0338 56.2723 51.2028 56.4413 51.5408 56.4413C51.8787 56.4413 52.0477 56.2723 52.0477 55.9344C52.0477 55.5964 51.7098 55.4274 51.5408 55.4274ZM45.2883 59.3141C44.9503 59.3141 44.6123 59.6521 44.6123 59.9901C44.6123 60.328 44.9503 60.666 45.2883 60.666C45.6263 60.666 45.9642 60.328 45.9642 59.9901C45.9642 59.4831 45.6263 59.3141 45.2883 59.3141ZM49.3439 62.6938C49.006 62.6938 48.668 63.0318 48.668 63.3698C48.668 63.7078 49.006 64.0457 49.3439 64.0457C49.6819 64.0457 50.0199 63.7078 50.0199 63.3698C49.8509 62.8628 49.6819 62.6938 49.3439 62.6938ZM37.3459 64.0457C37.008 64.0457 36.67 64.3837 36.67 64.7217V64.8906H38.1909V64.7217C38.0219 64.3837 37.6839 64.0457 37.3459 64.0457ZM33.9662 63.5387C33.6283 63.5387 33.1213 63.8768 33.1213 64.2147C33.1213 64.5527 33.2903 64.8906 33.6282 64.8906H34.1352C34.4732 64.7216 34.6422 64.5527 34.6422 64.2147C34.6422 63.8768 34.3042 63.5387 33.9662 63.5387ZM43.5984 62.0178C43.5984 61.6799 43.2604 61.3419 42.9225 61.3419C42.5845 61.3419 42.2465 61.6799 42.2465 62.0178C42.2465 62.3558 42.5845 62.6938 42.9225 62.6938C43.2604 62.6938 43.5984 62.3558 43.5984 62.0178ZM44.1054 62.8628C43.5984 62.8628 43.2605 63.2007 43.2605 63.7077C43.2605 64.2146 43.5984 64.5526 44.1054 64.5526C44.6124 64.5526 44.9503 64.2146 44.9503 63.7077C45.1193 63.2007 44.6124 62.8628 44.1054 62.8628ZM70.4672 36.332C69.9603 37.008 66.5805 39.8807 66.2426 40.2187C65.9046 40.5567 65.0597 39.5427 65.0597 39.5427L52.5547 28.2206L55.0895 25.8549C55.0895 25.8549 56.9483 24.165 57.4553 24.165C57.9622 24.165 59.1451 24.503 60.497 25.8549C61.8489 27.2067 65.2287 30.7554 66.9185 31.9383C68.6084 33.1212 70.2982 33.6282 71.3121 34.1351C72.3261 34.4731 71.1432 35.6561 70.4672 36.332ZM60.497 43.4294C60.1591 43.7673 59.4831 43.7673 59.1451 43.4294C58.8072 43.0914 58.8072 42.4155 59.1451 42.0775C59.4831 41.7395 60.1591 41.7395 60.497 42.0775C60.835 42.4155 60.835 43.0914 60.497 43.4294ZM50.8648 33.1212C50.5269 33.4592 49.8509 33.4592 49.5129 33.1212C49.175 32.7833 49.175 32.1073 49.5129 31.7694C49.8509 31.4314 50.5269 31.4314 50.8648 31.7694C51.2028 32.2763 51.2028 32.7833 50.8648 33.1212ZM76.5507 32.4453C76.2127 31.7693 75.5368 31.0934 74.6919 30.2485C73.847 29.4035 68.7773 25.8548 67.4255 24.8409C65.9046 23.827 62.1869 21.4612 61.5109 20.7853C60.835 20.1093 61.004 19.6024 60.835 18.5885C60.835 17.5746 59.9901 18.2505 59.9901 18.2505L44.6123 32.1074L44.7813 32.4453L8.44931 65.0597H29.5726V64.5526L30.5865 65.0597H32.7833L32.6143 62.5249L35.8251 64.2147L35.6561 60.666L38.5288 62.1869C38.5288 62.3559 38.3598 62.3559 38.3598 62.5249C38.3598 62.8628 38.6978 63.2008 39.0358 63.2008C39.3738 63.2008 39.7117 62.8628 39.7117 62.5249C39.7117 62.1869 39.3738 61.8489 39.0358 61.8489C38.8668 61.8489 38.8668 61.8489 38.6978 61.8489L38.5288 58.6381L41.7396 60.328L41.5706 56.7793L44.7813 58.4692L44.6123 54.9205L47.8231 56.6104L47.6541 53.0616L50.8648 54.7514L50.6958 51.2028L53.9066 52.8926L53.7376 49.3439L56.9483 51.0337L56.7794 47.4851L58.3002 47.992L59.9901 49.8509L62.3559 47.8231L76.0438 35.4871C75.8748 34.8111 77.2266 33.9661 76.5507 32.4453ZM80.9443 0H4.05566C1.85884 0 0 1.85879 0 4.05561V80.9443C0 83.1411 1.85884 85 4.05566 85H80.9443C83.1412 85 85 83.1411 85 80.9443V4.05561C85 1.6898 83.1412 0 80.9443 0Z" fill="#F04D12"></path></svg> 