<?xml version="1.0" encoding="UTF-8"?> <svg xmlns="http://www.w3.org/2000/svg" width="85" height="85" viewBox="0 0 85 85" fill="none"><path d="M80.2684 80.0994H4.90064V4.73159H80.2684V80.0994ZM80.9443 0H4.05571C1.85889 0 0 1.85879 0 4.05561V80.9443C0 83.1411 1.85889 85 4.05571 85H80.9443C83.1412 85 85 83.1411 85 80.9443V4.05561C85 1.6898 83.1412 0 80.9443 0Z" fill="#F04D12"></path><path d="M58.6666 12.3334L61.1666 14.8334L59.8333 16.1667L57.3333 13.6667L58.6666 12.3334ZM55 19.5H58.6666V21.3333H55V19.5ZM57.3333 27.1667L59.8333 24.6667L61.1666 26L58.6666 28.5L57.3333 27.1667ZM64.5 27.3334H66.3333V31H64.5V27.3334ZM72.1666 28.6667L69.6666 26.1667L71 24.8334L73.5 27.3334L72.1666 28.6667ZM76 21.5001H72.3333V19.6667H76V21.5001ZM73.5 13.8333L71 16.3333L69.6666 15L72.1666 12.5L73.5 13.8333ZM66.3333 13.6667H64.5V10H66.3333V13.6667ZM65.5 16.8333C63.5 16.8333 62 18.3334 62 20.3334C62 22.3334 63.5 23.8333 65.5 23.8333C67.5 23.8333 69 22.3334 69 20.3334C69 18.5 67.3333 16.8333 65.5 16.8333ZM65.5 15.1666C68.3333 15.1666 70.6666 17.5 70.6666 20.3334C70.6666 23.1667 68.3333 25.5 65.5 25.5C62.6666 25.5 60.3333 23.1667 60.3333 20.3334C60.3333 17.5 62.6666 15.1666 65.5 15.1666Z" fill="#F04D12"></path><path d="M76.958 55.8634L45.8299 24.1858C44.9975 23.3388 43.9988 23 43 23V85H65.1392C67.3032 85 69.1343 83.1366 69.1343 80.9344V62.3005H74.2946C79.9542 62.3005 77.6238 56.7104 76.958 55.8634Z" fill="#F04D12"></path><path d="M15.0172 17.823L17.4206 19.1705C17.5923 19.0021 17.7639 19.0021 17.7639 18.8336V16.1386L15.0172 17.823ZM3 3V82H16.2189C16.0472 81.6631 16.0472 81.1578 16.0472 80.6525V62.1237H10.7253C4.88841 62.1237 7.12016 56.565 7.97853 55.8912L40.0815 24.3923C40.9399 23.55 41.97 23.2132 43 23.2132V3.1684H3V3ZM28.236 24.7292L27.721 25.7399L27.0343 25.403L27.3777 27.2558L26.176 27.4243L25.6609 24.7292L24.9742 24.3923L25.3176 26.2452L24.1159 26.4136L23.6009 23.7185L23.2575 23.55L18.9657 25.9083V26.0767L21.3691 27.9296L20.6824 28.9403L18.9657 27.7611V28.4349L21.3691 30.2878L20.6824 31.2985L19.1373 30.1194V30.9616H17.9356V30.1194L16.3905 31.2985L15.7039 30.2878L17.9356 28.6033V27.9296L16.3905 28.9403L15.7039 27.9296L17.9356 26.4136V25.9083L13.9871 23.7185L13.6438 23.8869L13.1287 26.5821L11.927 26.4136L12.2704 24.5608L11.5837 24.8977L11.0686 27.5927L9.86696 27.4243L10.2103 25.5714L9.52359 25.9083L8.8369 24.8977L9.69527 24.3923L7.80685 23.55L8.32185 22.371L11.0686 23.55L11.5837 23.2132L9.69527 22.371L10.2103 21.3603L12.7854 22.5394L12.9571 22.371V18.3283L12.4421 17.9914L9.69527 19.0021L9.18022 17.823L11.0686 17.1492L10.5536 16.8123L7.80685 17.823L7.29185 16.6439L9.00859 15.9701L8.66522 15.8017L9.3519 14.7911L9.86696 14.9595L9.69527 12.9381L10.897 12.7697L11.2403 15.6333L11.7553 15.9701L11.5837 14.1172L12.7854 13.9488L13.1287 16.8123L13.6438 17.1492L17.5923 14.9595V14.6225L15.3605 12.9381L16.0472 11.9275L17.5923 13.1066V12.4328L15.3605 10.7484L16.0472 9.73775L17.5923 10.9168V10.2431H18.794V11.0853L20.339 9.90615L21.0258 10.9168L18.6223 12.6012V13.275L20.1674 12.0959L20.8541 13.1066L18.6223 14.7911V14.9595L22.5708 17.1492L22.9141 16.9808L23.2575 14.1172L24.4592 14.2856L24.2876 16.307L24.8026 15.9701L25.1459 13.1066L26.3476 13.275L26.176 15.1279L26.8627 14.7911L27.5493 15.8017L26.8627 16.1386L28.5794 16.8123L28.0643 17.9914L25.4892 16.9808L24.9742 17.3177L26.691 17.9914L26.176 19.1705L23.6009 18.1599L23.2575 18.3283V22.7078L23.6009 22.8763L26.3476 21.6972L26.8627 22.8763L24.9742 23.7185L25.6609 24.0555L28.4077 22.8763L28.9227 24.0555L27.0343 24.8977L28.236 24.7292ZM17.5923 21.6972L15.0172 23.0447L17.7639 24.5608L17.5923 21.6972C17.764 21.8656 17.5923 21.8656 17.5923 21.6972ZM16.9055 20.5181C16.9055 20.3496 16.9055 20.3496 16.9055 20.5181L14.5021 19.0021V22.0341L16.9055 20.6866V20.5181ZM19.4807 19.1705L21.8841 17.6545L18.9657 15.9701V18.8336C19.309 19.0021 19.309 19.1705 19.4807 19.1705ZM20.1674 20.5181V20.6866L22.5708 21.8656V18.6652L20.1674 20.1812C20.1674 20.3496 20.1674 20.3496 20.1674 20.5181ZM18.4507 20.0128C18.1073 20.0128 17.9356 20.1812 17.9356 20.5181C17.9356 20.855 18.1073 21.0234 18.4507 21.0234C18.794 21.0234 18.9657 20.855 18.9657 20.5181C18.9657 20.1812 18.794 20.0128 18.4507 20.0128ZM18.9657 22.0341V24.8977L22.0558 23.2132L19.4807 21.8656C19.309 21.8656 19.1373 21.8657 18.9657 22.0341Z" fill="#F04D12"></path></svg> 