<svg width="16" height="16" viewBox="0 0 16 16" fill="none" xmlns="http://www.w3.org/2000/svg">
<path d="M11.8718 10.1867C11.376 9.67399 10.757 9.67399 10.2643 10.1867C9.88846 10.577 9.51264 10.9674 9.14313 11.3643C9.04207 11.4735 8.9568 11.4966 8.83363 11.4238C8.59045 11.2849 8.33149 11.1725 8.09778 11.0203C7.00822 10.3025 6.09551 9.37959 5.28702 8.34093C4.88593 7.8249 4.52906 7.27249 4.27956 6.65062C4.22903 6.52492 4.23851 6.44222 4.33641 6.33968C4.71223 5.95927 5.07858 5.56895 5.44808 5.17862C5.96286 4.63613 5.96286 4.00102 5.44493 3.45523C5.15122 3.14429 4.85751 2.83997 4.5638 2.52903C4.26061 2.21148 3.96059 1.89061 3.65425 1.57637C3.15842 1.07027 2.53942 1.07027 2.04674 1.57968C1.66776 1.97 1.30458 2.37025 0.91928 2.75396C0.562408 3.1079 0.382393 3.54123 0.344495 4.04733C0.28449 4.87099 0.477138 5.64834 0.748739 6.40583C1.30458 7.97376 2.15096 9.36636 3.17737 10.6432C4.5638 12.3699 6.21868 13.736 8.15463 14.7218C9.02628 15.165 9.92951 15.5057 10.9117 15.562C11.5876 15.6017 12.175 15.423 12.6455 14.8706C12.9677 14.4935 13.3309 14.1495 13.6719 13.789C14.1772 13.2531 14.1804 12.6048 13.6783 12.0755C13.0782 11.4437 12.475 10.8152 11.8718 10.1867Z" fill="#25B755"/>
<path d="M11.2687 8.21257L12.434 8.00417C12.2509 6.88281 11.7455 5.86731 10.9781 5.0602C10.1665 4.21008 9.14006 3.67421 8.00944 3.50882L7.84521 4.73603C8.72003 4.86503 9.51588 5.27851 10.1444 5.93677C10.7381 6.55865 11.1265 7.34591 11.2687 8.21257Z" fill="#25B755"/>
<path d="M13.091 2.90689C11.7456 1.49774 10.0433 0.607927 8.16422 0.333374L8 1.56059C9.62329 1.79876 11.095 2.56949 12.2572 3.78348C13.3594 4.93792 14.0826 6.39669 14.3447 8.001L15.5101 7.79261C15.2038 5.93359 14.3669 4.24658 13.091 2.90689Z" fill="#25B755"/>
</svg>
