<?xml version="1.0" encoding="UTF-8"?> <svg xmlns="http://www.w3.org/2000/svg" width="26" height="26" viewBox="0 0 26 26" fill="none"><path d="M14.8057 25.8341C14.6995 25.8514 14.5928 25.8673 14.4858 25.8819C14.5928 25.8673 14.6995 25.8514 14.8057 25.8341Z" fill="#F04F23"></path><path d="M15.061 25.7905C15.0102 25.7998 14.9595 25.8084 14.9087 25.8172C14.9595 25.8084 15.0102 25.7998 15.061 25.7905Z" fill="#F04F23"></path><path d="M14.2011 25.9173C14.0768 25.9313 13.9517 25.9438 13.8262 25.9543C13.9517 25.9438 14.0768 25.9313 14.2011 25.9173Z" fill="#F04F23"></path><path d="M14.4459 25.8873C14.3862 25.8953 14.326 25.9027 14.2661 25.9097C14.326 25.9027 14.3862 25.8953 14.4459 25.8873Z" fill="#F04F23"></path><path d="M15.4081 25.7216C15.3633 25.7312 15.3184 25.7407 15.2734 25.7498C15.3184 25.7407 15.3633 25.7312 15.4081 25.7216Z" fill="#F04F23"></path><path d="M16.2692 25.5076C16.233 25.5179 16.1968 25.5276 16.1606 25.5377C16.1968 25.5276 16.233 25.5179 16.2692 25.5076Z" fill="#F04F23"></path><path d="M16.0089 25.5788C15.9696 25.5891 15.9301 25.5996 15.8906 25.6096C15.9301 25.5996 15.9696 25.5893 16.0089 25.5788Z" fill="#F04F23"></path><path d="M15.6682 25.664C15.6265 25.6738 15.5845 25.6829 15.5425 25.6922C15.5845 25.6829 15.6265 25.6738 15.6682 25.664Z" fill="#F04F23"></path><path d="M13.8222 25.9547C13.755 25.9603 13.6879 25.9654 13.6206 25.9698C13.6879 25.9654 13.755 25.9603 13.8222 25.9547Z" fill="#F04F23"></path><path d="M25.5 13.25C25.5 6.20945 19.7906 0.5 12.75 0.5C5.70945 0.5 0 6.20945 0 13.25C0 20.2906 5.70945 26 12.75 26C12.8249 26 12.8994 25.9984 12.9741 25.9971V16.0717H10.2349V12.8794H12.9741V10.5302C12.9741 7.80573 14.6373 6.32287 17.0676 6.32287C18.2314 6.32287 19.2318 6.40964 19.5234 6.44835V9.29578H17.8476C16.5254 9.29578 16.2694 9.92418 16.2694 10.8461V12.8794H19.4308L19.0188 16.0717H16.2694V25.5074C21.5987 23.9796 25.5 19.0698 25.5 13.25Z" fill="#F04F23"></path><path d="M13.5925 25.9716C13.4598 25.9801 13.3265 25.9869 13.1929 25.9914C13.3265 25.9869 13.4598 25.9801 13.5925 25.9716Z" fill="#F04F23"></path><path d="M13.1858 25.9918C13.1154 25.9941 13.0447 25.9959 12.9741 25.997C13.0447 25.9959 13.1154 25.9941 13.1858 25.9918Z" fill="#F04F23"></path></svg> 