<?xml version="1.0" encoding="UTF-8"?> <svg xmlns="http://www.w3.org/2000/svg" width="26" height="26" viewBox="0 0 26 26" fill="none"><path d="M15.6904 13.25C15.6904 14.5978 14.5978 15.6904 13.25 15.6904C11.9022 15.6904 10.8096 14.5978 10.8096 13.25C10.8096 11.9022 11.9022 10.8096 13.25 10.8096C14.5978 10.8096 15.6904 11.9022 15.6904 13.25Z" fill="#F04F23"></path><path d="M18.9571 8.93214C18.8398 8.61425 18.6526 8.32651 18.4095 8.09032C18.1733 7.84714 17.8857 7.65998 17.5676 7.54267C17.3097 7.44247 16.9221 7.32322 16.2083 7.29073C15.4361 7.25551 15.2046 7.24792 13.2498 7.24792C11.2948 7.24792 11.0633 7.25532 10.2913 7.29053C9.57748 7.32322 9.18975 7.44247 8.93197 7.54267C8.61388 7.65998 8.32614 7.84714 8.09015 8.09032C7.84697 8.32651 7.65981 8.61405 7.5423 8.93214C7.44211 9.19011 7.32285 9.57785 7.29036 10.2917C7.25515 11.0636 7.24756 11.2951 7.24756 13.2502C7.24756 15.205 7.25515 15.4365 7.29036 16.2087C7.32285 16.9225 7.44211 17.31 7.5423 17.568C7.65981 17.8861 7.84677 18.1736 8.08996 18.4098C8.32614 18.653 8.61369 18.8402 8.93177 18.9575C9.18975 19.0579 9.57748 19.1771 10.2913 19.2096C11.0633 19.2448 11.2946 19.2522 13.2496 19.2522C15.2048 19.2522 15.4363 19.2448 16.2081 19.2096C16.9219 19.1771 17.3097 19.0579 17.5676 18.9575C18.2061 18.7112 18.7108 18.2065 18.9571 17.568C19.0573 17.31 19.1766 16.9225 19.2092 16.2087C19.2445 15.4365 19.2519 15.205 19.2519 13.2502C19.2519 11.2951 19.2445 11.0636 19.2092 10.2917C19.1768 9.57785 19.0575 9.19011 18.9571 8.93214ZM13.2498 17.0095C11.1734 17.0095 9.49013 15.3264 9.49013 13.25C9.49013 11.1735 11.1734 9.4905 13.2498 9.4905C15.326 9.4905 17.0093 11.1735 17.0093 13.25C17.0093 15.3264 15.326 17.0095 13.2498 17.0095ZM17.1579 10.2204C16.6727 10.2204 16.2793 9.82707 16.2793 9.34186C16.2793 8.85666 16.6727 8.46328 17.1579 8.46328C17.6431 8.46328 18.0365 8.85666 18.0365 9.34186C18.0363 9.82707 17.6431 10.2204 17.1579 10.2204Z" fill="#F04F23"></path><path d="M13.25 0.5C6.20945 0.5 0.5 6.20945 0.5 13.25C0.5 20.2906 6.20945 26 13.25 26C20.2906 26 26 20.2906 26 13.25C26 6.20945 20.2906 0.5 13.25 0.5ZM20.5271 16.2684C20.4917 17.0478 20.3678 17.5799 20.1869 18.0456C19.8065 19.0291 19.0291 19.8065 18.0456 20.1869C17.5801 20.3678 17.0478 20.4915 16.2686 20.5271C15.4879 20.5627 15.2385 20.5713 13.2502 20.5713C11.2617 20.5713 11.0125 20.5627 10.2316 20.5271C9.45239 20.4915 8.9201 20.3678 8.45455 20.1869C7.96584 20.003 7.52343 19.7149 7.15768 19.3423C6.78531 18.9768 6.49718 18.5342 6.31334 18.0456C6.1324 17.5801 6.00848 17.0478 5.97307 16.2686C5.93708 15.4877 5.92871 15.2383 5.92871 13.25C5.92871 11.2617 5.93708 11.0123 5.97287 10.2316C6.00828 9.4522 6.13202 8.9201 6.31295 8.45435C6.4968 7.96584 6.78512 7.52324 7.15768 7.15768C7.52324 6.78512 7.96584 6.49699 8.45435 6.31314C8.9201 6.13221 9.4522 6.00848 10.2316 5.97287C11.0123 5.93727 11.2617 5.92871 13.25 5.92871C15.2383 5.92871 15.4877 5.93727 16.2684 5.97307C17.0478 6.00848 17.5799 6.13221 18.0456 6.31295C18.5342 6.4968 18.9768 6.78512 19.3425 7.15768C19.7149 7.52343 20.0032 7.96584 20.1869 8.45435C20.368 8.9201 20.4917 9.4522 20.5273 10.2316C20.5629 11.0123 20.5713 11.2617 20.5713 13.25C20.5713 15.2383 20.5629 15.4877 20.5271 16.2684Z" fill="#F04F23"></path></svg> 