<svg width="262" height="51" viewBox="0 0 262 51" fill="none" xmlns="http://www.w3.org/2000/svg">
<path fill-rule="evenodd" clip-rule="evenodd" d="M212.069 0.946655H261.757V50.5533H246.04C249.291 49.3827 252.202 47.4267 254.512 44.86L247.5 39.5283C246.45 40.7128 245.166 41.6674 243.728 42.3319C242.29 42.9964 240.73 43.3565 239.146 43.3894C237.562 43.4222 235.988 43.1273 234.524 42.523C233.059 41.9187 231.736 41.0183 230.638 39.8783C228.44 37.6019 227.213 34.5638 227.213 31.4025C227.213 28.2412 228.44 25.203 230.638 22.9267C231.694 21.8309 232.958 20.9562 234.357 20.3538C235.755 19.7514 237.26 19.4333 238.783 19.4181C240.307 19.4029 241.817 19.6909 243.228 20.2652C244.638 20.8396 245.92 21.6888 246.998 22.7633L254.009 17.35C252.079 15.3726 249.776 13.7947 247.234 12.7068C244.692 11.6188 241.96 11.042 239.194 11.0095C236.429 10.977 233.684 11.4894 231.116 12.5173C228.549 13.5452 226.211 15.0685 224.234 17C222.305 18.8732 220.772 21.1134 219.725 23.5881C218.678 26.0628 218.139 28.722 218.139 31.4083C218.139 34.0947 218.678 36.7538 219.725 39.2285C220.772 41.7033 222.305 43.9434 224.234 45.8167C226.384 47.9172 228.963 49.529 231.795 50.5417H212.069V0.946655Z" fill="#F04F23"/>
<path fill-rule="evenodd" clip-rule="evenodd" d="M17.8853 41.7216L13.3512 50.5533H36.4658L31.9784 41.7216H17.8853ZM0.0644531 0.946655H49.7526V50.5533H46.4455L24.8384 9.66165L3.23131 50.5533H0.0644531V0.946655ZM28.2156 34.255L24.9085 27.5C24.9085 27.6867 21.6014 34.2433 21.6014 34.2433L28.2156 34.255Z" fill="#F04F23"/>
<path fill-rule="evenodd" clip-rule="evenodd" d="M106.067 0.946655V50.5533H115.252V11.89H134.487C136.42 11.843 138.35 12.0828 140.213 12.6017C141.618 13.0997 142.918 13.8555 144.046 14.83C146.117 16.8022 147.368 19.4803 147.552 22.3317C147.658 24.1826 147.485 26.0389 147.037 27.8383C146.495 29.3494 145.657 30.7375 144.572 31.9217C143.294 33.2048 141.739 34.1786 140.026 34.7683L147.984 50.5417H155.802V0.946655H106.067ZM135.912 20.2433C136.308 20.3251 136.684 20.4848 137.017 20.7132C137.35 20.9416 137.634 21.234 137.852 21.5733C138.213 22.1807 138.425 22.8641 138.472 23.5683C138.545 24.489 138.311 25.408 137.806 26.1817C137.436 26.7755 136.863 27.215 136.193 27.4183C135.526 27.6669 134.824 27.8124 134.113 27.85C133.435 27.85 132.687 27.85 132.033 27.85H124.402V19.87H132.033C132.84 19.8535 133.648 19.8846 134.452 19.9633C134.95 20.0105 135.443 20.1043 135.924 20.2433H135.912ZM130.841 35.4917L137.852 50.5533H124.402V35.4917H130.841Z" fill="#F04F23"/>
<path fill-rule="evenodd" clip-rule="evenodd" d="M53.0596 50.5533H61.7655V11.7967H93.7262V19.8233H70.8921V27.5583H88.4209V35.3517H70.8921V43.2383H93.7262V50.5533H102.748V0.946655H53.0596V50.5533Z" fill="#F04F23"/>
<path fill-rule="evenodd" clip-rule="evenodd" d="M183.836 19.4267C185.366 19.4269 186.88 19.7372 188.286 20.3388C189.692 20.9405 190.961 21.8209 192.016 22.9267C194.189 25.2153 195.401 28.2489 195.401 31.4025C195.401 34.5561 194.189 37.5896 192.016 39.8783C190.965 40.9913 189.697 41.8781 188.291 42.4842C186.884 43.0904 185.368 43.403 183.836 43.403C182.304 43.403 180.788 43.0904 179.381 42.4842C177.975 41.8781 176.707 40.9913 175.656 39.8783C173.483 37.5896 172.271 34.5561 172.271 31.4025C172.271 28.2489 173.483 25.2153 175.656 22.9267C176.711 21.8209 177.98 20.9405 179.386 20.3388C180.792 19.7372 182.306 19.4269 183.836 19.4267ZM159.062 0.946655V50.5533H176.766C173.967 49.5317 171.423 47.9156 169.31 45.8167C167.402 43.9321 165.887 41.6882 164.852 39.215C163.818 36.7418 163.286 34.0884 163.286 31.4083C163.286 28.7283 163.818 26.0748 164.852 23.6016C165.887 21.1284 167.402 18.8846 169.31 17C173.18 13.172 178.406 11.0244 183.853 11.0244C189.301 11.0244 194.527 13.172 198.396 17C200.305 18.8846 201.82 21.1284 202.854 23.6016C203.889 26.0748 204.421 28.7283 204.421 31.4083C204.421 34.0884 203.889 36.7418 202.854 39.215C201.82 41.6882 200.305 43.9321 198.396 45.8167C196.279 47.9123 193.731 49.5243 190.929 50.5417H208.774V0.946655H159.062Z" fill="#F04F23"/>
</svg>
