<?xml version="1.0" encoding="UTF-8"?> <svg xmlns="http://www.w3.org/2000/svg" width="27" height="26" viewBox="0 0 27 26" fill="none"><path d="M11.9116 15.6387L16.059 13.25L11.9116 10.8614V15.6387Z" fill="#F04F23"></path><path d="M13.5 0.5C6.45945 0.5 0.75 6.20945 0.75 13.25C0.75 20.2906 6.45945 26 13.5 26C20.5406 26 26.25 20.2906 26.25 13.25C26.25 6.20945 20.5406 0.5 13.5 0.5ZM21.4668 13.263C21.4668 13.263 21.4668 15.8488 21.1388 17.0957C20.9549 17.7781 20.4168 18.3163 19.7343 18.4999C18.4875 18.8281 13.5 18.8281 13.5 18.8281C13.5 18.8281 8.52556 18.8281 7.26566 18.4869C6.58318 18.3032 6.04506 17.7649 5.86121 17.0824C5.533 15.8488 5.533 13.25 5.533 13.25C5.533 13.25 5.533 10.6644 5.86121 9.41757C6.04486 8.73509 6.59621 8.18373 7.26566 8.00008C8.51253 7.67188 13.5 7.67188 13.5 7.67188C13.5 7.67188 18.4875 7.67188 19.7343 8.01311C20.4168 8.19677 20.9549 8.73509 21.1388 9.41757C21.48 10.6644 21.4668 13.263 21.4668 13.263Z" fill="#F04F23"></path></svg> 