<svg width="39" height="23" viewBox="0 0 39 23" fill="none" xmlns="http://www.w3.org/2000/svg">
<path d="M2.21572 0.42041H26.5907C27.8126 0.42041 28.8066 1.41445 28.8066 2.63633V20.3636C28.8066 21.5855 27.8126 22.5795 26.5907 22.5795H2.21572C0.993851 22.5795 -0.000192642 21.5855 -0.000192642 20.3636V2.63633C-0.000192642 1.41453 0.993851 0.42041 2.21572 0.42041ZM2.65889 19.9204H26.1476V3.07957H2.65889V19.9204Z" fill="white"/>
<path d="M28.076 14.567L36.3409 18.7355V4.23061L28.0592 8.26353L26.895 5.87257L37.0881 0.908985C37.5003 0.708652 37.9868 0.733942 38.3751 0.977235C38.7638 1.21961 39 1.64602 39 2.10427V20.8952C39 21.357 38.7607 21.7856 38.3675 22.0275C38.1543 22.1587 37.9129 22.2247 37.6704 22.2247C37.4657 22.2247 37.2605 22.1777 37.0717 22.0824L26.8785 16.941L28.076 14.567Z" fill="white"/>
</svg>
